<?xml version="1.0" encoding="utf-8"?>
<!-- Generator: Adobe Illustrator 19.1.0, SVG Export Plug-In . SVG Version: 6.00 Build 0)  -->
<svg version="1.1" id="Layer_1" xmlns="http://www.w3.org/2000/svg" xmlns:xlink="http://www.w3.org/1999/xlink" x="0px" y="0px"
	 viewBox="-404 282.3 32 32" style="enable-background:new -404 282.3 32 32;" xml:space="preserve">
<style type="text/css">
	.st0{fill:#FFFFFF;}
</style>
<path class="st0" d="M-390.4,291.9c-0.3-0.2-0.7-0.3-1.1-0.4c-0.5,0-1,0.2-1.4,0.6c-0.3,0.4-0.5,0.9-0.4,1.4c0,0.7,0.2,1.4,0.6,2.2
	c0.2,0.4,0.5,0.7,0.8,0.9c0.3,0.2,0.7,0.4,1.1,0.4c0.5,0,1-0.2,1.3-0.6c0.2-0.2,0.3-0.5,0.3-0.8c0-0.3,0-0.5,0-0.7
	c0-0.8-0.2-1.5-0.6-2.3C-389.8,292.4-390.1,292.1-390.4,291.9z"/>
<path class="st0" d="M-390.5,300.2c-0.1,0-0.4,0-0.8,0c-0.4,0.1-0.8,0.1-1.3,0.3c-0.1,0-0.2,0.1-0.4,0.2s-0.4,0.2-0.6,0.4
	c-0.2,0.2-0.3,0.4-0.5,0.6c-0.1,0.2-0.2,0.5-0.2,0.9c0,0.7,0.3,1.3,1,1.7c0.6,0.4,1.4,0.7,2.5,0.7c1,0,1.7-0.2,2.2-0.6
	s0.7-0.9,0.7-1.5c0-0.5-0.2-0.9-0.5-1.3c-0.4-0.3-0.9-0.8-1.7-1.3C-390.2,300.2-390.3,300.2-390.5,300.2z"/>
<path class="st0" d="M-388,282.3c-8.8,0-16,7.2-16,16s7.2,16,16,16s16-7.2,16-16S-379.2,282.3-388,282.3z M-388.2,291.9
	c0.2,0.2,0.3,0.3,0.4,0.6c0.1,0.2,0.3,0.5,0.4,0.7c0.1,0.3,0.1,0.6,0.1,1c0,0.7-0.2,1.3-0.5,1.7c-0.2,0.2-0.3,0.4-0.5,0.6
	c-0.2,0.2-0.4,0.3-0.6,0.5c-0.1,0.1-0.2,0.3-0.3,0.4c-0.1,0.2-0.2,0.3-0.2,0.6c0,0.2,0.1,0.4,0.2,0.5c0.1,0.1,0.2,0.2,0.3,0.3
	l0.7,0.5c0.4,0.3,0.8,0.7,1.1,1.1c0.3,0.4,0.5,1,0.5,1.6c0,0.9-0.4,1.8-1.3,2.5c-0.9,0.8-2.2,1.1-3.9,1.2c-1.4,0-2.5-0.3-3.2-0.9
	c-0.6-0.5-1-1.1-1-1.9c0-0.4,0.1-0.8,0.3-1.2c0.3-0.4,0.7-0.8,1.3-1.1c0.7-0.4,1.3-0.6,2.1-0.7c0.7-0.1,1.3-0.2,1.8-0.2
	c-0.1-0.2-0.3-0.4-0.4-0.6c-0.1-0.2-0.2-0.4-0.2-0.7c0-0.2,0-0.3,0.1-0.4c0-0.1,0.1-0.2,0.1-0.3c-0.2,0-0.4,0-0.6,0
	c-1.1,0-1.9-0.3-2.5-1c-0.7-0.7-1-1.4-1-2.1c0-1,0.4-1.8,1.3-2.6c0.6-0.5,1.2-0.8,1.8-0.9c0.6-0.1,1.2-0.2,1.7-0.2h4l-1.2,0.7h-1.2
	C-388.5,291.7-388.4,291.8-388.2,291.9z M-380,298.9h-2.3v2.3h-1.1v-2.3h-2.3v-1.1h2.3v-2.3h1.1v2.3h2.3V298.9z"/>
</svg>
