<?xml version="1.0" encoding="utf-8"?>
<!-- Generator: Adobe Illustrator 19.1.0, SVG Export Plug-In . SVG Version: 6.00 Build 0)  -->
<svg version="1.1" id="Layer_1" xmlns="http://www.w3.org/2000/svg" xmlns:xlink="http://www.w3.org/1999/xlink" x="0px" y="0px"
	 viewBox="-404 282.3 32 32" style="enable-background:new -404 282.3 32 32;" xml:space="preserve">
<style type="text/css">
	.st0{fill:#FFFFFF;}
</style>
<path class="st0" d="M-388,282.3c-8.8,0-16,7.2-16,16s7.2,16,16,16s16-7.2,16-16S-379.2,282.3-388,282.3z M-386.8,301.9
	c-1,0-1.9-0.5-2.2-1.1c0,0-0.5,2.1-0.6,2.5c-0.4,1.4-1.6,2.9-1.7,3c-0.1,0.1-0.2,0.1-0.2-0.1c0-0.2-0.3-2,0-3.5c0.2-0.7,1.2-5,1.2-5
	s-0.3-0.6-0.3-1.5c0-1.4,0.8-2.4,1.8-2.4c0.8,0,1.2,0.6,1.2,1.4c0,0.8-0.5,2.1-0.8,3.3c-0.2,1,0.5,1.8,1.5,1.8
	c1.7,0,2.9-2.2,2.9-4.9c0-2-1.4-3.5-3.8-3.5c-2.8,0-4.5,2.1-4.5,4.4c0,0.8,0.2,1.4,0.6,1.8c0.2,0.2,0.2,0.3,0.1,0.5
	c0,0.2-0.1,0.6-0.2,0.7c-0.1,0.2-0.2,0.3-0.5,0.2c-1.3-0.5-1.9-1.9-1.9-3.5c0-2.6,2.2-5.7,6.6-5.7c3.5,0,5.8,2.5,5.8,5.3
	C-381.8,299.2-383.8,301.9-386.8,301.9z"/>
</svg>
