<?xml version="1.0" encoding="utf-8"?>
<!-- Generator: Adobe Illustrator 19.1.0, SVG Export Plug-In . SVG Version: 6.00 Build 0)  -->
<svg version="1.1" id="Layer_1" xmlns="http://www.w3.org/2000/svg" xmlns:xlink="http://www.w3.org/1999/xlink" x="0px" y="0px"
	 viewBox="-404 282.3 32 32" style="enable-background:new -404 282.3 32 32;" xml:space="preserve">
<style type="text/css">
	.st0{fill:#FFFFFF;}
</style>
<path class="st0" d="M-388,282.3c-8.8,0-16,7.2-16,16s7.2,16,16,16s16-7.2,16-16S-379.2,282.3-388,282.3z M-381.6,295
	c0,0.1,0,0.3,0,0.4c0,4.3-3.3,9.3-9.3,9.3c-1.9,0-3.6-0.5-5-1.5c0.3,0,0.5,0,0.8,0c1.5,0,3-0.5,4.1-1.4c-1.4,0-2.6-1-3.1-2.3
	c0.2,0,0.4,0.1,0.6,0.1c0.3,0,0.6,0,0.9-0.1c-1.5-0.3-2.6-1.6-2.6-3.2l0,0c0.4,0.2,0.9,0.4,1.5,0.4c-0.9-0.6-1.5-1.6-1.5-2.7
	c0-0.6,0.2-1.2,0.4-1.7c1.6,2,4,3.3,6.8,3.4c-0.1-0.2-0.1-0.5-0.1-0.7c0-1.8,1.5-3.3,3.3-3.3c0.9,0,1.8,0.4,2.4,1
	c0.7-0.1,1.5-0.4,2.1-0.8c-0.2,0.8-0.8,1.4-1.4,1.8c0.7-0.1,1.3-0.3,1.9-0.5C-380.4,294-381,294.6-381.6,295z"/>
</svg>
