<?xml version="1.0" encoding="utf-8"?>
<!-- Generator: Adobe Illustrator 19.1.0, SVG Export Plug-In . SVG Version: 6.00 Build 0)  -->
<svg version="1.1" id="Layer_1" xmlns="http://www.w3.org/2000/svg" xmlns:xlink="http://www.w3.org/1999/xlink" x="0px" y="0px"
	 viewBox="-404 282.3 32 32" style="enable-background:new -404 282.3 32 32;" xml:space="preserve">
<style type="text/css">
	.st0{fill:#FFFFFF;}
</style>
<path class="st0" d="M-388,282.3c-8.8,0-16,7.2-16,16s7.2,16,16,16s16-7.2,16-16S-379.2,282.3-388,282.3z M-392.4,306.3h-3.3v-10.7
	h3.3V306.3z M-394.1,294.2c-1,0-1.9-0.9-1.9-2c0-1,0.9-1.9,1.9-1.9c1.1,0,1.9,0.9,1.9,1.9C-392.2,293.3-393,294.2-394.1,294.2z
	 M-380,306.3h-3.3v-5.2c0-1.2,0-2.8-1.7-2.8s-2,1.3-2,2.7v5.3h-3.3v-10.7h3.2v1.5l0,0c0.4-0.8,1.5-1.7,3.1-1.7c3.4,0,4,2.2,4,5.1
	V306.3z"/>
</svg>
